<?xml version="1.0" encoding="UTF-8"?>
<svg width="80px" height="80px" viewBox="0 0 80 80" version="1.1" xmlns="http://www.w3.org/2000/svg" xmlns:xlink="http://www.w3.org/1999/xlink">
    <!-- Generator: Sketch 54.1 (76490) - https://sketchapp.com -->
    <title>Commit-Utils</title>
    <desc>Created with Sketch.</desc>
    <g id="Commit-Utils" stroke="none" stroke-width="1" fill="none" fill-rule="evenodd">
        <path d="M30.3212845,14.3402779 C28.8468704,12.8004974 27.1794405,11.0382752 25.2608443,8.98083261 C25.5131177,8.74558388 24.2123362,8.24789816 26.2754151,6.25805506 C28.338494,4.26821195 28.9169554,5.57145384 29.2410926,5.26919098 C31.1126024,7.27613947 32.7205599,9.0250857 34.1285865,10.5745836 L36.280733,8.44595655 C38.6184319,6.13380493 42.3815681,6.13380493 44.719267,8.44595655 L75.1988658,38.5924624 C77.5548497,40.9226992 77.5757219,44.7216318 75.245485,47.0776157 C75.2300308,47.0932407 75.2144908,47.1087807 75.1988658,47.124235 L44.719267,77.2707408 C42.3815681,79.5828924 38.6184319,79.5828924 36.280733,77.2707408 L5.80113423,47.124235 C3.44515029,44.7939981 3.42427814,40.9950656 5.75451497,38.6390817 C5.76996923,38.6234566 5.78550922,38.6079167 5.80113423,38.5924624 L30.3212845,14.3402779 Z M26.817428,4.48609427 C25.8596071,4.95519506 25.3620761,5.41915026 24.8273038,6.34191509 L21.6544396,2.93943479 C21.2686323,2.02696113 22.7612254,0.635095518 23.6445638,1.08361398 L26.817428,4.48609427 Z M30.3212845,14.3402779 C34.481008,18.6844182 37.1044064,21.2580166 39.4973143,23.6954024 L39.0201423,47.4494727 C36.3944561,48.4456411 34.4529641,50.9015888 34.2418755,53.7610253 C34.1012254,56.8775155 35.9977659,59.5466182 38.8147134,60.3892119 L39.166452,54.4132852 C39.1865061,53.3456842 40.1371527,52.4591919 41.203552,52.5136588 C42.2749761,52.4827553 43.1201012,53.389041 43.0145342,54.4556995 L42.6627956,60.4316261 C45.5349709,59.6090261 47.7832954,57.0283217 47.9641896,53.954988 C48.1350341,51.0523951 46.4849827,48.5568607 43.9346238,47.5463539 L44.4511219,28.9717721 C44.9027377,29.4778343 45.3729349,30.0114752 45.8679606,30.5805133 C48.2503208,33.1352819 50.4161028,35.4577987 52.798463,38.0125673 L59.7300272,41.5630994 L56.2811803,34.7648808 C53.8988201,32.2101123 51.7330381,29.8875955 49.3506779,27.3328269 C43.4819236,21.4597445 41.6823792,18.8873428 34.1285865,10.5745836 L30.3212845,14.3402779 Z" id="Combined-Shape-Copy" fill="#FF3A00"></path>
    </g>
</svg>