<?xml version="1.0" encoding="UTF-8"?>
<svg width="50px" height="50px" viewBox="0 0 50 50" version="1.1" xmlns="http://www.w3.org/2000/svg" xmlns:xlink="http://www.w3.org/1999/xlink">
    <!-- Generator: Sketch 54.1 (76490) - https://sketchapp.com -->
    <title>Commit-Utils</title>
    <desc>Created with Sketch.</desc>
    <g id="Commit-Utils" stroke="none" stroke-width="1" fill="none" fill-rule="evenodd">
        <path d="M19.2145907,9.65502607 C18.3120067,8.71143917 17.2956264,7.63658196 16.1328552,6.3896625 C16.2917837,6.24145924 15.4721301,5.9277311 16.7718327,4.67415151 C18.0715354,3.42057191 18.4361519,4.2418036 18.6403536,4.05138241 C19.7771863,5.27048617 20.7597094,6.33852535 21.6238279,7.28854661 C23.9763323,5.29336309 27.5023936,5.40109712 29.7281608,7.6117487 L45.6200669,23.3957301 C47.9711825,25.7308788 47.9841262,29.5298467 45.6489774,31.8809622 C45.6393734,31.8906319 45.6297366,31.9002688 45.6200669,31.9098727 L29.7281608,47.6938541 C27.3883659,50.017759 23.6116341,50.017759 21.2718392,47.6938541 L5.37993309,31.9098727 C3.02881752,29.574724 3.01587384,25.7757562 5.35102258,23.4246406 C5.36062655,23.414971 5.37026345,23.4053341 5.37993309,23.3957301 L19.2145907,9.65502607 Z M17.1131594,3.55769888 C16.5097015,3.85317759 16.1962642,4.14546261 15.8594102,4.72683893 L13.8598814,2.58260685 C13.6166943,2.00761793 14.5570062,1.1307629 15.1136306,1.41346681 L17.1131594,3.55769888 Z M19.2145907,9.65502607 C21.8971074,12.4594051 23.5744581,14.1042698 25.1023206,15.6604955 L24.8040837,30.6319996 C23.1497866,31.259407 21.926743,32.8066912 21.794041,34.6083955 C21.7057482,36.5720763 22.9010088,38.2540738 24.6760104,38.7852877 L24.8970052,35.0199026 C24.9095284,34.3472109 25.5084219,33.7887337 26.1803485,33.8231656 C26.8554321,33.8038064 27.3880272,34.3749447 27.3216236,35.0470334 L27.1006288,38.8124185 C28.910253,38.2944023 30.3266136,36.6685414 30.4402681,34.7320576 C30.5476084,32.9031563 29.5076749,31.33055 27.9006287,30.6935624 L28.2242276,18.9854622 C28.5095147,19.3051163 28.8065631,19.6422272 29.1193406,20.0017605 C30.6206963,21.6117673 31.9855651,23.0754099 33.4869208,24.6854168 L37.8547608,26.9233323 L35.6809819,22.6394217 C34.1796262,21.0294148 32.8147574,19.5657722 31.3134017,17.9557654 C27.5900836,14.2296151 26.4656907,12.6117434 21.6238279,7.28854661 C21.5033073,7.39076135 21.3858669,7.49849538 21.2718392,7.6117487 L19.2145907,9.65502607 Z" id="Combined-Shape-Copy" fill="#FF3A00"></path>
    </g>
</svg>