<svg width="80" height="80" viewBox="0 0 80 80" xmlns="http://www.w3.org/2000/svg"><path d="M30.321 14.34a555.804 555.804 0 0 1-5.06-5.36c.252-.234-1.049-.732 1.014-2.722 2.063-1.99 2.642-.687 2.966-.989a558.072 558.072 0 0 1 4.888 5.306l2.152-2.129a6 6 0 0 1 8.438 0L75.2 38.592a6 6 0 0 1 0 8.532L44.72 77.271a6 6 0 0 1-8.438 0L5.8 47.124a6 6 0 0 1 0-8.532L30.32 14.34zm-3.504-9.854c-.957.47-1.455.933-1.99 1.856l-3.173-3.403c-.385-.912 1.107-2.304 1.99-1.855l3.173 3.402zm3.504 9.854c4.16 4.344 6.783 6.918 9.176 9.355L39.02 47.45c-2.626.997-4.567 3.453-4.778 6.312-.14 3.117 1.756 5.786 4.573 6.628l.351-5.976c.02-1.067.971-1.954 2.038-1.9a1.762 1.762 0 0 1 1.81 1.943l-.351 5.976c2.872-.823 5.12-3.404 5.301-6.477.171-2.903-1.479-5.398-4.03-6.409l.517-18.574c.452.506.922 1.04 1.417 1.609l6.93 7.432 6.932 3.55-3.449-6.798-6.93-7.432c-5.87-5.873-7.669-8.446-15.222-16.758L30.32 14.34z" fill="#FF3A00" fill-rule="evenodd"/></svg>